PathFileType	4	(X/Y/Z)	./resultDataOpenSim/trcMotMarkerGrf/sub10/qtm-04-05.trc
DataRate	CameraRate	NumFrames	NumMarkers	Units	OrigDataRate	OrigDataStartFrame	OrigNumFrames
250.000000	250.000000	14	24	m	250.000000	309	493
Frame#	Time	L.Toe.Tip			R.Toe.Tip			L.Ankle.Lat			R.Ankle.Lat			L.Ankle.Med			R.Ankle.Med			L.Heel			R.Heel			L.Knee.Lat			R.Knee.Lat			L.Knee.Med			R.Knee.Med			L.Thigh.Upper			R.Thigh.Upper			L.ASIS			R.ASIS			V.Sacral			L.Acromium			R.Acromium			C7			L.Elbow			R.Elbow			L.Wrist.Lat			R.Wrist.Lat
		X1	Y1	Z1	X2	Y2	Z2	X3	Y3	Z3	X4	Y4	Z4	X5	Y5	Z5	X6	Y6	Z6	X7	Y7	Z7	X8	Y8	Z8	X9	Y9	Z9	X10	Y10	Z10	X11	Y11	Z11	X12	Y12	Z12	X13	Y13	Z13	X14	Y14	Z14	X15	Y15	Z15	X16	Y16	Z16	X17	Y17	Z17	X18	Y18	Z18	X19	Y19	Z19	X20	Y20	Z20	X21	Y21	Z21	X22	Y22	Z22	X23	Y23	Z23	X24	Y24	Z24

309	1.232	0.10501736	-0.031526067	-0.13005642	0.95084199	0.04561501	-0.0048870631	0.019011357	0.06854505	-0.17006319	0.81414083	0.05477161	0.037185686	0.038769073	0.084815755	-0.090528238	0.8268669	0.08208989	-0.047874083	-0.045689596	0.085053931	-0.12800336	0.76274981	0.027810546	-0.0066057935	0.24814659	0.38080508	-0.20404932	0.73644112	0.44029027	0.055665789	0.26201948	0.34846872	-0.083201629	0.73999248	0.44860982	-0.072162947	0.39012845	0.74444333	-0.24896949	0.52214928	0.7799737	0.12153604	0.48499078	0.83684952	-0.21595039	0.55879032	0.86271436	0.021325099	0.33353129	0.86451834	-0.033451034	0.4869751	1.3190854	-0.23545373	0.48428417	1.3222098	0.082597366	0.40708274	1.350818	-0.083596101	0.54372855	0.9776539	-0.31147244	0.2805097	1.042199	0.099428745	0.77819413	0.97568182	-0.22361484	0.24032485	0.84634809	0.23360071
310	1.236	0.10635159	-0.031551746	-0.13011573	0.95241	0.045086647	-0.0044739806	0.023537814	0.07097803	-0.17096226	0.81480327	0.054738227	0.037455243	0.043940087	0.086725516	-0.091544913	0.82833682	0.081808433	-0.047909026	-0.040305571	0.089073585	-0.12853086	0.76345602	0.028214529	-0.0064600669	0.25591385	0.3810818	-0.20439261	0.74328889	0.44183217	0.055723235	0.26948491	0.3483936	-0.08367243	0.74524829	0.44960318	-0.072479999	0.39793888	0.74406447	-0.2485548	0.52846475	0.78100062	0.12204018	0.49305543	0.83677623	-0.21501172	0.56564629	0.86357437	0.02215463	0.34053398	0.86554943	-0.03428096	0.49397417	1.3202941	-0.23439854	0.49136689	1.322976	0.083506982	0.41405647	1.3515122	-0.082477687	0.54975347	0.97854482	-0.31075053	0.28836051	1.0426787	0.099948286	0.78420975	0.97651929	-0.22300989	0.24734635	0.84684554	0.23385297
311	1.24	0.10782277	-0.03164387	-0.13022809	0.95375845	0.044541157	-0.0041955751	0.028373434	0.073360574	-0.1718915	0.8152371	0.054783936	0.037568264	0.049465765	0.088539436	-0.092610196	0.82946364	0.081550384	-0.048046035	-0.034493533	0.093106712	-0.12899861	0.76399911	0.028520615	-0.0064704771	0.26400659	0.38131213	-0.20481913	0.75013269	0.44338293	0.055801439	0.27715125	0.34824904	-0.084222884	0.75053278	0.45078568	-0.072820359	0.40580353	0.74366163	-0.2481751	0.53477989	0.78211684	0.12250528	0.50118498	0.83672561	-0.21402619	0.57251462	0.8644883	0.022971217	0.34680736	0.86696847	-0.034824935	0.50100597	1.3215586	-0.23330286	0.49839326	1.3238318	0.08441535	0.42100963	1.3522779	-0.081369766	0.55569948	0.97949867	-0.31005662	0.29627395	1.0431754	0.10049507	0.7901939	0.97728577	-0.22251329	0.25450572	0.84733346	0.23410843
312	1.244	0.10942263	-0.031829559	-0.13038785	0.95472357	0.043900774	-0.0040337076	0.033525568	0.075665868	-0.17286282	0.81554464	0.054903659	0.037503262	0.055357373	0.090242765	-0.093723477	0.83024864	0.081306146	-0.048239106	-0.028235334	0.097133285	-0.12941924	0.76442519	0.028769876	-0.0065820248	0.27241889	0.38149275	-0.20533591	0.75677261	0.44486972	0.055812871	0.28503789	0.34801653	-0.08484341	0.75588205	0.45209536	-0.073179456	0.41371411	0.74326383	-0.24785347	0.54110852	0.78331635	0.12292897	0.50935395	0.83669826	-0.21299279	0.57939169	0.86542409	0.023765521	0.35277437	0.86869546	-0.03513786	0.50805739	1.3228718	-0.23218124	0.50536599	1.3247684	0.085322762	0.42793119	1.3531157	-0.080277647	0.56155577	0.98051456	-0.30941719	0.30424016	1.0436864	0.10107017	0.7961381	0.97797321	-0.22209533	0.26178866	0.84780785	0.23437857
313	1.248	0.11112623	-0.032155661	-0.13057281	0.9553746	0.043264655	-0.0039425885	0.039001832	0.077858184	-0.17387157	0.81575955	0.055087349	0.037332453	0.061619236	0.091818182	-0.094870152	0.83076107	0.08107754	-0.048433775	-0.021535535	0.10113449	-0.12981631	0.76479344	0.02898812	-0.0067213317	0.28103324	0.38161231	-0.20587025	0.7631554	0.4462474	0.055738855	0.29317293	0.3476729	-0.085515874	0.76132115	0.45347233	-0.073521167	0.42166831	0.74288023	-0.24757945	0.54746285	0.78458924	0.12332063	0.51752041	0.83669332	-0.21191532	0.58627664	0.86636235	0.024531115	0.35906489	0.87041709	-0.035426649	0.51510263	1.3242211	-0.23105082	0.51228235	1.3257664	0.086224492	0.43482116	1.3540124	-0.079212969	0.567306	0.98158646	-0.30885917	0.31225456	1.0442116	0.10167736	0.80201217	0.97853727	-0.22171058	0.26916798	0.84825897	0.23467401
314	1.252	0.11289132	-0.032667299	-0.13076449	0.95593018	0.042709324	-0.0038743801	0.044816683	0.079913225	-0.17488562	0.81591839	0.055296382	0.037137904	0.068239465	0.093266719	-0.09602598	0.83114481	0.080869297	-0.048596445	-0.014426521	0.10510285	-0.13022502	0.76514194	0.029186776	-0.0068392135	0.28978434	0.3816471	-0.20637154	0.76933035	0.44748795	0.055614209	0.30159509	0.34719299	-0.086235985	0.7668543	0.45486488	-0.073790581	0.42965741	0.74251038	-0.24732438	0.55384374	0.78592314	0.12369377	0.52563458	0.83671128	-0.21080004	0.59317073	0.86730717	0.025267102	0.36598849	0.87186969	-0.035843092	0.52211897	1.3255921	-0.22992441	0.51913448	1.3268123	0.08711399	0.44168041	1.3549492	-0.078186868	0.57294272	0.98270108	-0.30840045	0.32031938	1.0447512	0.10232068	0.80778801	0.97893931	-0.22133207	0.2766425	0.84867642	0.23500196
315	1.256	0.1146614	-0.033348089	-0.13097937	0.95655626	0.042215919	-0.0037862789	0.050977826	0.081840216	-0.17587113	0.81609068	0.055474024	0.036958148	0.075179141	0.094619093	-0.097172671	0.83155705	0.080680096	-0.048723691	-0.0069671201	0.10905009	-0.13068911	0.76547582	0.029367759	-0.0069214036	0.29875059	0.38157278	-0.20687658	0.7753447	0.44857115	0.055477555	0.31034714	0.34655814	-0.087029067	0.77245794	0.4562312	-0.073943511	0.43766112	0.7421455	-0.24706715	0.56023581	0.78731015	0.12405611	0.53365641	0.83675453	-0.20965018	0.60007242	0.86827932	0.025975015	0.37343642	0.87305923	-0.036378896	0.5290974	1.326972	-0.22880636	0.5259116	1.3279042	0.087987288	0.44850328	1.3559099	-0.077202797	0.57847476	0.98384078	-0.30802741	0.3284368	1.0453073	0.10300209	0.81346181	0.97917786	-0.22096458	0.28425616	0.84905465	0.23536641
316	1.26	0.11637766	-0.034051821	-0.13126996	0.95726493	0.041744487	-0.0036554808	0.057451996	0.083697881	-0.17683101	0.8163334	0.055576725	0.036804747	0.082370458	0.095927837	-0.098301348	0.83207975	0.080499704	-0.048830521	0.00076943972	0.11301304	-0.13124223	0.76578219	0.0295281	-0.0069751888	0.30803219	0.38137792	-0.20744569	0.78120058	0.44948109	0.055346232	0.31946981	0.34576295	-0.087926448	0.77808062	0.45753192	-0.073971548	0.44565821	0.7417637	-0.24680446	0.56661909	0.78875463	0.12441409	0.54156991	0.83682438	-0.20846715	0.60697183	0.8692975	0.026657071	0.38107649	0.87417058	-0.036938992	0.53603458	1.3283522	-0.22769517	0.53260293	1.3290403	0.088841769	0.45527865	1.3568831	-0.076255224	0.58392942	0.98499714	-0.30768765	0.33659386	1.0458814	0.10371984	0.8190507	0.97928036	-0.22063413	0.2920512	0.84939293	0.23576868
317	1.264	0.11801724	-0.034506593	-0.13166802	0.95797361	0.041297333	-0.0034933678	0.064151898	0.085591244	-0.1778002	0.81664404	0.055591577	0.03668671	0.089725426	0.097262687	-0.099400153	0.83268609	0.080315407	-0.048933401	0.0087125456	0.11704975	-0.13188308	0.76604999	0.029663742	-0.0070108197	0.31763773	0.38106556	-0.20809768	0.78686522	0.45020294	0.055218165	0.32899201	0.34480679	-0.088923546	0.78365478	0.45872542	-0.073904871	0.45364163	0.74134278	-0.24655122	0.57298272	0.7902717	0.1247825	0.54938216	0.83691551	-0.20725514	0.61385125	0.87036174	0.027318105	0.38873548	0.87531977	-0.037453978	0.54291865	1.3297268	-0.22659185	0.53920242	1.3302135	0.089673939	0.46199289	1.3578568	-0.075335207	0.58934235	0.98618279	-0.30732776	0.34475505	1.0464711	0.10446658	0.82458106	0.97928636	-0.22037214	0.30002741	0.84969006	0.23621325
318	1.268	0.11964453	-0.034437774	-0.13212604	0.9586094	0.040902721	-0.0033369152	0.0709749	0.087638913	-0.17879097	0.81695217	0.055542631	0.036609942	0.097157466	0.098716051	-0.1004416	0.83328963	0.080121488	-0.049041884	0.016805796	0.12122357	-0.13257624	0.76627876	0.029771681	-0.007033529	0.32750338	0.38064719	-0.20882119	0.792297	0.45072133	0.055086848	0.33892244	0.3436862	-0.089985107	0.78911734	0.45977505	-0.07378843	0.46161938	0.74088292	-0.24633418	0.57931365	0.79186972	0.12517135	0.55710761	0.83701656	-0.20602378	0.62068925	0.87145311	0.027964687	0.39656986	0.876486	-0.037873405	0.54973341	1.3310894	-0.225501	0.54570941	1.3314128	0.090479925	0.46863119	1.3588167	-0.074438677	0.59472854	0.98741144	-0.30692698	0.3528757	1.0470729	0.10523084	0.83008008	0.9792303	-0.22019809	0.30816089	0.84993998	0.23670937
319	1.272	0.12140804	-0.033731293	-0.13254404	0.95914773	0.040576959	-0.0032219479	0.077857232	0.089927575	-0.17975444	0.81717578	0.055481013	0.036564053	0.10461067	0.10039436	-0.10138212	0.83381962	0.07992128	-0.049157396	0.025011539	0.12558159	-0.13328515	0.76647624	0.029850567	-0.0070486765	0.33755573	0.38013747	-0.2096064	0.79747059	0.45102566	0.054958121	0.34925893	0.34242674	-0.091124198	0.79442402	0.46065628	-0.073656027	0.46959386	0.74040675	-0.24616698	0.58557141	0.79352941	0.12555804	0.56475447	0.83712151	-0.20478712	0.62746559	0.87254961	0.028601017	0.40462806	0.87770025	-0.038130315	0.55647608	1.3324332	-0.22442246	0.55212561	1.332627	0.091256321	0.47518063	1.3597516	-0.073571893	0.60007457	0.98867663	-0.30649222	0.36092772	1.0476863	0.106003	0.83556164	0.9791126	-0.22010872	0.31643379	0.85013569	0.23726435
320	1.276	0.12345009	-0.032490781	-0.13287204	0.95959288	0.040314892	-0.0031580981	0.084795964	0.09249015	-0.1806117	0.81730549	0.055449016	0.036521397	0.1120715	0.10238054	-0.10218188	0.83425651	0.079722061	-0.049274177	0.033317163	0.13014013	-0.13399798	0.76665037	0.029900742	-0.0070656945	0.34775205	0.37954971	-0.21045411	0.80238982	0.45112034	0.05485444	0.35998914	0.34112181	-0.092463423	0.79954898	0.46135571	-0.073529027	0.47754419	0.73993699	-0.24602038	0.59169718	0.79520711	0.12589311	0.57232369	0.83723775	-0.20355979	0.63416914	0.87363957	0.029228268	0.41230148	0.87921422	-0.038155165	0.56316026	1.3337543	-0.22335427	0.55845173	1.3338484	0.092000876	0.48163365	1.3606599	-0.072748444	0.60536594	0.98996512	-0.30604457	0.36891607	1.0483023	0.10678074	0.84101195	0.97888908	-0.2200854	0.32484077	0.85027563	0.23788126
321	1.28	0.12581804	-0.030929144	-0.13315574	0.95995698	0.04010269	-0.0031234045	0.091837529	0.095323259	-0.18132304	0.81740397	0.055451092	0.036461067	0.11955908	0.10469278	-0.1028292	0.83461862	0.079532373	-0.049381987	0.041743536	0.13489041	-0.13470772	0.76680266	0.029926234	-0.0070900519	0.35809109	0.3788961	-0.21137025	0.80707954	0.4510342	0.054801369	0.37105453	0.3398694	-0.094112927	0.80447859	0.46187092	-0.073425154	0.4854419	0.73948512	-0.24583294	0.59767861	0.7968714	0.12615489	0.57981425	0.83738061	-0.2023544	0.64080459	0.874719	0.029847826	0.41853388	0.8813847	-0.037756613	0.56980512	1.3350556	-0.22231139	0.56468425	1.3350758	0.09271398	0.48798834	1.3615504	-0.071978563	0.61060077	0.99126845	-0.30560936	0.37687324	1.0488973	0.10757127	0.84639605	0.9785144	-0.22010818	0.33338273	0.85036255	0.23856089
322	1.284	0.128469	-0.029208472	-0.13346489	0.96025217	0.039931048	-0.0030842203	0.09904647	0.098418792	-0.18191049	0.81752717	0.055461711	0.036389989	0.12711654	0.10728077	-0.10333859	0.83492957	0.079361854	-0.049469619	0.050335984	0.13981199	-0.13537324	0.76692916	0.029936885	-0.0071147502	0.36859521	0.37819667	-0.21235774	0.8115639	0.45081757	0.05481135	0.38235239	0.33864195	-0.095955706	0.8092086	0.46221035	-0.073353816	0.49327534	0.73905753	-0.24555764	0.60359953	0.79853371	0.1263925	0.58722569	0.83756107	-0.20118117	0.64738679	0.87578131	0.03046227	0.42281139	0.88429521	-0.036656001	0.57643069	1.3363414	-0.2213338	0.57081986	1.3363112	0.093398105	0.49424683	1.3624389	-0.071260337	0.61577668	0.99258043	-0.30520932	0.38483942	1.0494528	0.10838894	0.85168036	0.97798975	-0.22015763	0.34205779	0.8503976	0.23930193
